<svg width="56" height="56" viewBox="0 0 56 56" fill="none" xmlns="http://www.w3.org/2000/svg">
<path d="M23.8619 4H40.9654C45.9568 4 49.7041 8.52557 48.7363 13.3846C48.2203 15.9753 47.055 18.3953 45.3478 20.4211L22.5603 47.463C20.1374 50.3384 16.5545 52 12.7774 52C9.01799 52 6.22225 48.5504 7.02857 44.9066L14.4128 11.5409C15.3873 7.13728 19.3185 4 23.8619 4Z" fill="#ffffff"/>
<path d="M27.6418 46.4752C29.8106 43.7883 32.1651 40.8149 34.1727 38.2463C35.9116 36.0217 39.4865 36.9309 39.9825 39.7405L40.7849 44.2851C41.4942 48.3022 38.4974 52 34.5325 52H30.1235C27.3873 52 25.8927 48.642 27.6418 46.4752Z" fill="#ffffff"/>
</svg>
