<svg width="40" height="40" viewBox="0 0 40 40" fill="none" xmlns="http://www.w3.org/2000/svg">
<path d="M20.0059 0C31.0314 1.93181e-05 39.9998 8.96869 40 19.9941C40 31.0195 31.0315 39.9883 20.0059 39.9883C15.9387 39.9883 12.1657 38.7778 9.00391 36.6855L1.31641 39.1426L3.80859 31.7139C1.41079 28.4224 0 24.3668 0 19.9941C4.12877e-05 8.96855 8.96855 3.8542e-05 19.9941 0H20.0059ZM12.4717 9.14551C11.7074 9.14551 10.9078 9.36868 10.4258 9.8623C9.83823 10.4618 8.38087 11.8604 8.38086 14.7285C8.38086 17.5965 10.4726 20.3703 10.7549 20.7588C11.0488 21.1463 14.834 27.1171 20.7109 29.5508C25.3068 31.455 26.6708 31.2789 27.7168 31.0557C29.2448 30.7266 31.1606 29.5975 31.6426 28.2344C32.1246 26.8706 32.1247 25.7068 31.9834 25.46C31.8423 25.2134 31.4544 25.0724 30.8672 24.7783C30.2797 24.4844 27.4226 23.0738 26.8818 22.8857C26.3528 22.6862 25.8476 22.7571 25.4482 23.3213C24.884 24.1087 24.3316 24.908 23.8848 25.3896C23.5322 25.7658 22.9562 25.8132 22.4746 25.6133C21.8281 25.3433 20.0177 24.708 17.7842 22.7217C16.0563 21.1822 14.8809 19.2665 14.54 18.6904C14.199 18.1029 14.5054 17.7615 14.7754 17.4443C15.0692 17.0799 15.3507 16.8213 15.6445 16.4805C15.9384 16.1399 16.103 15.963 16.291 15.5635C16.4911 15.1757 16.35 14.7754 16.209 14.4814C16.0674 14.1861 14.8931 11.3194 14.4111 10.1562C14.0234 9.22777 13.729 9.19283 13.1416 9.16895C12.9186 9.15458 12.6951 9.14662 12.4717 9.14551Z" fill="url(#paint0_linear_64_35)"/>
<defs>
<linearGradient id="paint0_linear_64_35" x1="-150.292" y1="-66.9879" x2="-150.292" y2="-65.5207" gradientUnits="userSpaceOnUse">
<stop stop-color="#6EBF61"/>
<stop offset="0.231" stop-color="#50A557"/>
<stop offset="0.522" stop-color="#2A904F"/>
<stop offset="0.812" stop-color="#50A557"/>
<stop offset="1" stop-color="#6EBF63"/>
</linearGradient>
</defs>
</svg>
